<svg width="612" height="330" viewBox="0 0 612 330" xmlns="http://www.w3.org/2000/svg"><path d="M234.326 284.867c.116.437.23.874.348 1.312 2.411-.725 4.822-1.45 7.233-2.177l-.254-.95-7.327 1.815m272.09-276.98c.018-.348.035-.695.054-1.041l-39.086-1.957c-.022.418-.043.837-.063 1.255l39.094 1.743M293.41 224.722c55.979-8.96 111.041-21.436 163.718-43.074-53.506 18.456-108.136 32.592-163.718 43.074m-18.193-18.828l.26 1.11c12.828-2.387 25.685-4.627 38.478-7.191 33.78-6.773 67.47-13.979 100.564-23.666 13.394-3.922 26.664-8.278 39.935-12.612 6.734-2.2 13.343-4.792 20.01-7.197 2.564-.923 5.137-1.82 7.704-2.73l-.46-1.363c-67.195 24.177-136.338 40.857-206.49 53.65m180.217-.875c-.25-.393-.499-.787-.747-1.18-5.126 2.766-10.14 5.77-15.4 8.253-12.158 5.741-24.319 11.502-36.692 16.749-14.702 6.234-29.59 12.039-44.497 17.766-2.312.89-4.968 3.524-7.814.616-.067-.07-.976.685-1.491 1.057-1.64 1.181-3.116 2.891-4.946 3.467-28.016 8.833-56.078 17.526-84.136 26.225-4.097 1.27-8.237 2.403-12.356 3.598 2.398.33 4.618-.04 6.754-.686 29.86-9.033 59.718-18.075 89.546-27.212 2.951-.904 4.267-.69 3.841 2.832-.14 1.163.66 2.438 1.028 3.664.652-1.101 1.408-2.155 1.931-3.316 1.185-2.632.617-5.82 4.609-7.274a1184.663 1184.663 0 0045.016-17.423c9.844-4.044 19.408-8.776 29.07-13.258 6.292-2.918 12.59-5.827 18.772-8.962 2.653-1.347 5.017-3.26 7.512-4.916M60.948 178.385l.523.922c5.7-3.672 11.311-7.488 17.113-10.988 20.528-12.388 41.822-23.334 64.243-31.804 19.721-7.45 39.485-15.067 59.757-20.705 25.463-7.081 51.396-12.543 77.264-18.046 10.859-2.31 22.07-2.971 33.13-4.312 6.465-.785 12.944-1.452 19.42-2.134 6.527-.688 13.057-1.33 19.585-1.994-5.06-.572-10.097-1.061-15.007-.48-14.987 1.769-29.95 3.803-44.88 6.002-39.068 5.75-77.625 13.93-114.876 27.184-22.071 7.853-43.781 16.807-65.347 25.99-18.287 7.786-35.418 17.796-50.925 30.365M390.724 3.9c-59.044-.85-152.559 12.72-259.947 67.44-27.26 13.89-53.137 30.262-76.897 49.726C155.384 48.927 267.8 8.603 390.724 3.9m156.502 21.113c-.678.662-1.44 1.966-2.026 1.891-5.742-.736-11.45-1.727-17.18-2.58-1.077-.16-2.2-.03-3.3-.035.727.81 1.324 1.819 2.201 2.396 5.067 3.337 10.344 6.37 15.286 9.878 16.679 11.846 26.924 27.876 29.819 48.22.786 5.518.119 11.246.119 17.991 12.107-8.993 21.972-18.344 27.646-31.116 2.765-6.222 3.272-13.225-1.246-19.192-9.129-12.06-22.934-16.381-36.264-21.426-5.11-1.935-11.366-1.035-15.055-6.027M307.245 105.64l2.496-3.022c-1.109-.146-1.994-.51-2.72-.308-1.632.448-3.182 1.18-4.766 1.797l5.151 1.398c-1.068.8-2.075 2.147-3.222 2.284-2.185.26-4.552-.65-6.66-.204-3.042.64-5.84 2.443-8.881 3.078-23.435 4.888-46.973 9.304-70.328 14.544-9.204 2.065-18.125 5.586-26.995 8.921-15.076 5.668-31.038 8.813-45.537 16.115-1.22.614-2.812.456-4.067 1.02-4.728 2.118-9.442 4.28-14.055 6.635-4.259 2.172-8.279 4.833-12.594 6.873-4.167 1.971-8.633 3.296-12.87 5.128-11.386 4.926-20.59 13.167-30.208 20.668-5.315 4.147-9.796 9.43-14.324 14.498-2.378 2.66-4.179 5.879-6 8.989-1.966 3.36-.28 5.128 3.078 5.512 9.888 1.13 19.788 3.022 29.684 3.027 46.466.02 92.36-6.557 138.167-13.446 25.622-3.852 51.118-8.59 76.584-13.387 42.132-7.938 83.938-17.344 125.122-29.38 28.983-8.471 57.642-17.867 85.58-29.408 3.552-1.466 3.184-2.806 1.089-5.125-6.971-7.72-16.094-12.616-25.413-15.939-11.977-4.27-24.776-6.21-37.192-9.275-.887-.219-1.461-1.526-2.298-2.176-.997-.775-2.119-1.389-3.188-2.071l-1.268 1.543 3.44.635-.814 1.075c-2.21-.389-4.503-1.356-6.615-1.057-6.635.94-12.998-1.194-19.569-1.21-11.184-.027-22.364-1.015-33.543-1.631-2.934-.162-5.863-.608-8.794-.627-2.629-.017-5.258.365-7.887.584-1.956.164-3.914.323-5.866.527-1.826.192-4.152 1.266-5.373.513-3.615-2.23-6.915-.84-10.242.063-2.885.782-5.547 2.039-7.298-1.792-.28-.617-1.598-.797-2.47-1.058-.112-.032-.733.841-.63 1.04 1.761 3.396-1.224 1.833-2.252 2.113-1.383.376-2.829.537-4.252.75-2.437.366-4.874.723-7.315 1.04-2.96.385-6.374-.069-8.768 1.294-2.666 1.518-4.168.505-6.117-.548m-187.665 1.73c-4.974 2.24-10.132 4.152-14.9 6.775-21.814 11.998-41.796 26.618-59.537 44.08-6.153 6.057-10.848 13.593-16.305 20.374-6.635 8.238-10.337 17.666-10.85 28.152-.15 3.06.553 6.993 2.435 9.153 4.299 4.938 10.221 7.78 17.173 9.534-4.74-8.67-6.74-17.3-1.783-25.682 3.446-5.826 7.737-11.385 12.592-16.087 14.794-14.327 32.57-24.395 50.661-33.835 28.383-14.81 58.172-26.194 88.656-35.8 39.507-12.45 79.79-21.326 120.995-25.717 14.265-1.52 28.58-2.68 42.896-3.635 29.124-1.942 58.153-.65 87.005 3.72 15.687 2.374 31.127 5.607 46.048 11.528 15.178 6.027 28.954 13.203 36.375 28.77.903 1.893 1.945 2.538 4.008 1.46 4.927-2.575 10.028-4.82 14.896-7.494 3.966-2.18 8.536-4.065 11.363-7.354 6.316-7.342 10.287-16.074 10.873-26.009.456-7.76-.809-15.539-5.292-21.647-5.371-7.323-10.962-15.132-19.522-19.05-4.136-1.89-5.76-7.519-11.268-6.976-.448.046-1.006-1.397-1.57-2.105-1.744-2.188-5.47-1.383-6.665-4.414-.25.121-.494.308-.76.35-1.167.183-2.494.762-3.49.416-11.977-4.164-23.834-8.644-36.332-11.174-11.455-2.317-22.843-3.668-34.633-2.918-7.327.466-14.767 2.921-22.29.197-1.448-.524-3.68 1.677-5.638 1.919-12.874 1.6-25.748 3.325-38.673 4.386-12.587 1.035-24.688 5.842-37.66 4.334-2.972-.346-6.953-.368-9.793 3.16-1.271 1.578-4.872-.508-7.839 1.013-3.167 1.625-7.459 1.048-11.26 1.441-.129.013-.242.164-.374.197-8.358 1.987-16.426 5.068-24.61 7.406C253.52 54.69 222.653 63.81 192.554 75.4c-6.782 2.612-13.42 5.684-20.35 7.795-9.26 2.82-18.764 4.647-26.906 10.529-3.043 2.2-7.117 2.939-10.652 4.5-1.368.606-2.546 1.645-3.81 2.488l-11.257 6.659m276.772 111.783c-1.143.716-2.198 1.793-3.44 2.092-21.314 5.14-42.514 10.908-64.022 15.064-27.398 5.294-55.034 9.367-82.605 13.732-6.986 1.108-14.128 1.192-21.167 2.007-4.445.516-8.807 1.784-13.254 2.245-11.594 1.204-23.21 2.215-34.83 3.13-2.026.161-4.121-.77-6.171-.713-1.254.036-2.471 1.431-3.727 1.469-10.906.336-21.82.77-32.726.653-14.83-.16-29.718-.063-44.465-1.37-22.495-1.995-44.811-5.55-63.99-18.928-12.561-8.76-23.47-18.8-25.577-35.422-1.523-12.016 1.639-22.76 7.958-32.567 4.772-7.406 10.583-14.135 15.757-21.29 1.433-1.981 2.053-4.538 3.392-6.605 2.075-3.203 4.046-6.629 6.757-9.234C49.52 118.729 66.519 106.198 84.39 94.93c13.229-8.343 26.651-16.47 40.477-23.76 44.2-23.313 90.114-42.367 138.752-54.382C296.121 8.76 328.999 2.663 362.404.64 382.57-.58 402.87.303 423.108.394c16.39.074 32.776.39 49.165.576 30.047.341 59.721 3.568 88.555 12.39 14.42 4.411 27.916 10.73 38.68 21.859 12.38 12.794 16.33 35.54 8.339 51.505-6.502 12.985-15.836 23.661-27.802 31.974-6.274 4.357-12.783 8.45-18.616 13.345-4.974 4.172-8.822 9.678-13.727 13.947-7.668 6.673-15.932 12.654-23.675 19.244-2.482 2.11-3.956 5.363-6.175 7.837-6.03 6.72-11.542 14.133-18.486 19.745-10.654 8.605-22.219 16.1-33.618 23.733-6.089 4.078-12.643 7.457-18.988 11.149-4.605.269-8.528 1.874-11.262 5.795-7.394 3.353-14.779 6.725-22.188 10.043-1.594.714-3.279 1.227-4.903 1.817-5.948 2.37-11.913 4.754-17.877 7.137-1.97 1.328-3.775 3.088-5.935 3.914-43.458 16.605-87.788 30.415-133.04 41.193-28.509 6.79-56.91 14.139-85.637 19.841-25.2 5.001-50.774 8.118-76.206 11.914-4.063.607-8.253.324-12.375.604-4.748.32-8.815-1.1-12.301-4.317-.402-.373-.898-.667-1.391-.92-1.301-.674-2.626-1.304-3.941-1.95 1.149-.846 2.3-1.69 3.59-2.637-.318-.266-.57-.57-.894-.735-1.268-.644-2.558-1.244-3.84-1.863 1.46-.882 2.872-2.446 4.382-2.548 50.93-3.481 99.947-16.842 149.112-29.215 57.506-14.472 114.251-31.553 169.558-53.129 12.735-4.968 25.327-10.348 37.787-15.976 9.098-4.108 17.874-8.931 26.441-14.33-4.477 1.517-8.93 3.107-13.436 4.534-9.492 3.006-19.026 5.883-28.505 8.93-1.275.41-2.333 1.498-3.487 2.272l-4.06 1.08" fill="#000" fill-rule="evenodd"/></svg>