<svg width="48" height="46" viewBox="0 0 48 46" xmlns="http://www.w3.org/2000/svg"><path d="M5.1 23.524h.001l18.89 19.546s0 0 0 0l17.565-18.405.115-.112c.528-.47 1.017-.983 1.46-1.53l.103-.116.082-.086.057-.103.08-.107A12.704 12.704 0 0046 14.97C46 7.816 40.066 2 32.727 2 30.476 2 28 3.51 25.482 6.286L24 7.919l-1.482-1.633C20.001 3.51 17.524 2 15.273 2 7.933 2 2 7.816 2 14.97c0 2.911.982 5.673 2.766 7.928l.225.284.11.342z" stroke="currentColor" stroke-width="4" fill="none" fill-rule="evenodd"/></svg>