<svg width="187" height="22" xmlns="http://www.w3.org/2000/svg"><path d="M173.446 17.911c3.31.541 6.39.979 9.435 1.582.847.167 2.404.18 2.227 1.348-.194 1.286-1.75 1.12-2.772 1.024-5.512-.507-11.013-1.154-16.522-1.678-16.638-1.583-33.318-2.135-50.02-2.347-22.017-.279-43.951 1.281-65.912 2.334-11.604.557-23.189 1.69-34.833 1.233a34.953 34.953 0 01-9.274-1.64C.675 18.141-.989 14.264 1.49 9.601 2.801 7.13 3.94 4.495 6.576 3.014c1.445-.81 2.723-1.366 3.77.617.887 1.681 2.573 1.85 4.297 2.375 6.191 1.89 12.596.867 18.404-.095 7.416-1.23 14.926-1.963 22.335-2.84 8.682-1.03 17.501-1.601 26.295-2.033C92.584.502 103.497 1.04 114.4.35c3.223-.208 6.852-.424 9.976 1.423.081.048.254.053.318 0 3.248-2.676 6.943 2.09 10.224-.575.346-.28 1.196-.378 1.54-.15 4.37 2.891 9.568.953 14.186 2.504 1.661.558 3.612.924 5.34-.302.311-.22.947-.343 1.244-.175 3.996 2.277 8.91.59 12.864 3.015.26.16.695.296.936.188 4.141-1.827 7.115 3.206 11.323 1.888 1.352-.423 3.827 4.519 2.732 5.949-1.135 1.482-.633 1.655.589 2.1.713.261 1.588.553 1.216 1.563-.405 1.093-1.328.775-2.212.635a447.738 447.738 0 00-9.345-1.356c-.618-.085-1.324-.25-1.885.854" fill="#FEE6C6" fill-rule="evenodd"/></svg>