<svg width="80" height="80" xmlns="http://www.w3.org/2000/svg"><g fill="#FFF7CC" fill-rule="evenodd"><path d="M30.995 25.789l.233-.333a5734.28 5734.28 0 01-4.482-3.944l-.194.23 4.443 4.047m7.3 6.514l-.198.228L57.07 52.934l.202-.187-18.977-20.444m-.632-8.409l.17-.25c-4.784-4.347-9.635-8.61-15.481-11.94l15.311 12.19m-19.58 11.609l-1.142-.453-.702-2.063.244-.165-1.11-.385c.313-1.406.61-2.7 2.361-3.127 3.433-.838 6.83-1.817 10.241-2.742.749-.202 1.492-.424 2.483-.707-1.097-1.001-1.99-1.91-2.983-2.692-.679-.536-1.497-.893-2.248-1.34a3.386 3.386 0 01-.563-.408c-1.582-1.454-3.167-2.903-4.729-4.378-.624-.59-1.193-1.237-1.788-1.859l.423-.132c.096-.753.285-1.51.27-2.261-.037-1.843 1.724-3.322 3.433-2.586 1.936.835 3.895 1.777 5.564 3.042 3.883 2.942 7.617 6.083 11.365 9.2.68.564 1.214.734 2.099.518 2.019-.494 4.072-.893 6.135-1.139.784-.093 1.639.316 2.445.55.19.056.433.318.452.505.078.755.082 1.519.108 2.28.066 1.9-.959 3.044-2.598 3.774-.38.17-.734.4-1.216.668 1.974 2.173 3.929 4.16 5.697 6.302 5.24 6.341 10.44 12.715 15.577 19.14 1.272 1.592 2.263 3.411 3.343 5.15.25.405.337.912.5 1.372l-.364.29c-.743-.738-1.65-1.372-2.204-2.231-3.51-5.439-7.677-10.362-11.903-15.23-3.871-4.457-7.895-8.782-11.858-13.16-.274-.303-.599-.56-.9-.839l-.241.214c.186.241.36.493.56.722 5.77 6.565 11.64 13.045 17.276 19.724 2.912 3.452 5.417 7.249 8.08 10.91.249.342.306.825.452 1.243l-1.282-.046c1.416 1.696-.81 1.313-1.365 1.976l-1.182-.785.215.774-.146.111-3.489-4.167.199-.202 1.202 1.309.185-.182-5.194-6.25-.225.15 1.355 1.83-.19.175c-.572-.628-1.138-1.262-1.715-1.884-7.076-7.621-14.156-15.239-21.228-22.864-.529-.57-1.05-.894-1.863-.531-.232.103-.612-.128-.926-.197-.146-.032-.403-.105-.43-.057-.96 1.686-2.834.919-4.18 1.558-.31.147-.714.266-1.029.195-.363-.081-1.083.763-1.096-.356l-1.595.3c-2.112.254-4.23.475-6.335.782-.764.111-1.498.43-2.245.654"/><path d="M40 52c.528-1.484 1.074-2.963 1.574-4.455.226-.676.361-1.381.538-2.073l.563-.472.325.163L40 52"/></g></svg>