<svg width="80" height="80" xmlns="http://www.w3.org/2000/svg"><path d="M37.09 15.209c1.222.898 2.434 1.814 3.668 2.692 2.954 2.102 5.92 4.187 8.88 6.28-2.664-2.46-5.538-4.59-8.465-6.635-1.286-.898-2.68-1.621-4.025-2.424l-3.391-2.344-.333.632 3.666 1.799m29.618 18.386c2.28 2.016 5.221 3.378 6.505 6.698l-1.662-.461c.261.825.651 1.559.635 2.282-.006.25-1.023.477-1.53.694.433.477 1.076 1.048 1.524 1.745.192.299.129.998-.104 1.26-.186.21-.93.207-1.211.003-2.733-1.987-5.363-4.12-8.132-6.05-3.722-2.594-7.538-5.054-11.327-7.549-.278-.183-.675-.186-1.193.032 1.757 1.255 3.52 2.5 5.268 3.768 4.585 3.327 9.174 6.648 13.725 10.02.454.337.657 1.016.977 1.536-.678-.028-1.518.194-2.009-.125-3.86-2.506-7.646-5.13-11.475-7.686-1.429-.954-2.916-1.821-4.372-2.734-.822-.516-1.079-.275-1.023.658.083 1.41-.056 2.847.17 4.228.116.711.684 1.511 1.284 1.947 1.058.769 2.296 1.291 3.458 1.916l-.23.486L51.98 44.4l-.218.447c1.21.616 2.429 1.218 3.631 1.85 1.168.615 1.795 1.205 1.178 2.85-.47 1.257-.878 2.844-.2 4.37.183.411-.082 1.222-.421 1.595-.239.264-.972.205-1.443.098-.84-.19-1.65-.525-2.473-.8l-.197.467c.601.355 1.22.687 1.798 1.078.278.188.482.485.72.734-.285.21-.541.502-.86.611-.393.135-.84.18-1.257.155-1.77-.11-2.441.548-2.788 2.386-.407 2.16-.881 4.32-1.539 6.414-.405 1.292-1.225 2.406-2.845 2.525-.3.023-.7.392-.835.698-.999 2.269-3.958 2.965-5.722 1.14-1.262-1.306-2.494-2.78-3.25-4.408-2.023-4.348-3.836-8.799-5.608-13.258-.474-1.192-1.16-1.627-2.337-1.976-4.94-1.462-9.899-2.907-14.71-4.732-1.782-.676-3.315-2.243-4.708-3.656-1.288-1.305-1.258-2.908-.22-4.56.587-.936.664-2.18 1.156-3.194.787-1.624 1.467-3.422 2.665-4.7 1.987-2.12 4.38-3.851 6.532-5.824.49-.45.808-1.178 1.007-1.839a45.445 45.445 0 001.116-4.485c.444-2.3 1.738-4.122 3.095-5.926.4-.532.706-1.168 1.193-1.597.778-.685 1.673-1.932 2.534.538l-.117-2.195c.944-.025 2.05-.384 2.803-.017 3.537 1.723 7.145 3.39 10.417 5.55 6.542 4.32 12.879 8.951 19.31 13.438.441.308.971.486 1.46.725l.784.555 4.714 3.823.362.315" fill="#E5FEC9" fill-rule="evenodd"/></svg>