<?xml version="1.0" encoding="UTF-8"?>
<svg width="80px" height="80px" viewBox="0 0 80 80" version="1.1" xmlns="http://www.w3.org/2000/svg" xmlns:xlink="http://www.w3.org/1999/xlink">
    <!-- Generator: Sketch 63.1 (92452) - https://sketch.com -->
    <title>Artboard Copy 2</title>
    <desc>Created with Sketch.</desc>
    <g id="Artboard-Copy-2" stroke="none" stroke-width="1" fill="none" fill-rule="evenodd">
        <g id="14" transform="translate(40.333281, 39.836369) rotate(-129.000000) translate(-40.333281, -39.836369) translate(6.333281, 21.336369)" fill="#FEE6C6">
            <path d="M15.9245424,11.5857147 C16.4870242,11.2640133 17.0495061,10.9423119 17.611988,10.6206106 C16.9366448,10.7264299 16.3900626,11.0672265 15.9245424,11.5857147 M46.8130868,5.91973957 C46.371807,6.28520079 46.0256643,6.57242468 45.678479,6.85805729 C45.6224393,6.90446928 45.3933283,6.75197276 45.5173975,6.99331508 C45.5489361,7.05484411 45.734258,7.11186455 45.7459873,7.09542144 C46.0327018,6.68964809 46.7255085,6.70025654 46.8130868,5.91973957 M44.3926944,6.009381 C44.8506558,5.82558954 45.5687455,6.15365597 45.3602258,5.17900429 C44.9968802,5.37711716 44.5613347,5.43281154 44.3926944,6.009381 M43.9803467,6.01495044 C43.3644316,6.18097274 42.9218486,6.45785338 42.4078475,6.4748269 C42.252761,6.47986592 42.0246926,6.51116086 42.0577951,6.72412556 C42.0841207,6.89492167 42.2939436,6.90367364 42.4646691,6.91534294 C43.103782,6.95936802 43.5617434,6.67134851 43.9803467,6.01495044 M17.3401305,7.5807582 C17.3203211,7.51896395 17.301033,7.45716971 17.2814843,7.39511026 C16.2769406,7.37628025 15.4071528,7.78576656 14.6103469,8.42810843 C15.5202748,8.14539314 16.429942,7.86320828 17.3401305,7.5807582 M48.4755101,4.60190441 C48.7215634,4.23246501 48.8370312,4.01446129 48.3819369,3.72803304 C48.1413573,3.57659737 47.6695815,3.54079383 47.6820927,3.04723553 C47.6841779,2.96342874 47.5168408,3.02257087 47.4464654,3.07826526 C47.3927716,3.12069907 47.2324721,3.1098254 47.3385565,3.26205671 C47.6854811,3.76038882 47.4164907,4.09694202 47.0012759,4.42103028 C47.341163,4.33801913 47.6432559,4.77853516 47.9776693,4.34756673 C48.0673328,4.23166938 47.8976499,3.87840787 48.2135573,3.98767494 C48.4431896,4.06670792 48.4976653,4.29876785 48.4755101,4.60190441 M45.9505972,5.53518312 C45.8984673,4.92466661 46.5177708,4.57432243 46.0892628,4.0006703 C45.9141063,3.76595826 46.3470453,3.66783007 46.4943123,3.50843805 C47.3568019,2.57622019 48.3376265,1.77156898 49.3692777,1.05337666 C49.8053445,0.74997489 50.4077058,0.902471411 50.9094563,1.13479655 C51.0270093,1.18943008 51.1620258,1.30532744 51.097906,1.4798365 C51.0144981,1.70738783 50.8628,1.51086623 50.7434225,1.52067905 C50.578692,1.53447004 50.4105729,1.52810496 50.2693009,1.71083558 C50.6451576,2.03624989 50.9587191,2.41948028 51.5282385,2.45077522 C51.9304209,2.47305297 51.8157351,2.93770324 51.8282463,3.13289879 C51.8579603,3.5983447 52.1647449,3.74288488 52.4285223,4.00146593 C52.6816131,4.24970375 52.795517,4.58227877 53.2712026,4.40193506 C53.4494869,4.33404096 53.7781661,4.4589555 53.8931126,4.75148361 C53.6551395,4.98460438 53.4554819,4.74352727 53.2414885,4.68146781 C53.1163767,5.3195663 53.5871099,5.26228065 53.9152678,5.36465223 C54.0849507,5.41742929 54.3213599,5.38321702 54.3487281,5.64975442 C54.3789635,5.94519985 54.0221342,5.77334291 53.9428967,6.01229832 C54.458201,6.1544516 54.6388312,6.45970986 54.0747854,6.72863416 C53.6898059,6.91216041 54.0213522,7.35930673 53.6181272,7.47573451 C53.6322023,7.21476655 53.4666898,7.00524959 53.3426206,6.7670898 C52.9964779,6.92807309 53.3579989,7.18373682 53.2654683,7.3821149 C52.9036866,7.40730998 52.8080282,6.87900899 52.3805628,7.0943606 C52.4889931,6.78591981 53.208386,6.48145719 52.3245231,6.46554451 C52.0362447,6.46050549 51.8738599,5.90143998 51.4536927,6.25098853 C51.3455232,6.34062996 51.3145058,6.08761835 51.31216,6.01362438 C51.2931326,5.4224683 50.8390809,5.12357512 50.4282971,5.12967498 C49.9312383,5.13736611 49.2212287,4.83847293 48.9545841,5.67468429 C48.8891611,5.87969265 48.6553584,6.03934988 48.4786379,6.19582457 C48.2143392,6.42947576 47.8741914,6.5379472 48.0110325,7.07659144 C48.0774982,7.33941588 47.7712348,7.79929234 47.2574944,7.6534261 C46.7513129,7.50994677 46.4367088,7.70514232 46.4679867,8.24590824 C46.4872748,8.58299186 46.3397471,8.40768716 46.1969111,8.47345957 C45.6422487,8.72753204 44.9366702,8.16740568 44.4698467,8.87074616 C44.2402144,9.21684696 44.0689676,9.38180842 44.6713289,9.41071645 C43.9472442,9.63057665 43.2182072,9.83478939 42.5006388,10.0756013 C42.0431987,10.2288934 41.7491859,10.0146027 41.5031327,9.68361892 C41.3832338,9.52237043 41.3767176,9.33751812 41.0548153,9.40461659 C40.7391686,9.47012379 40.4756518,9.14205736 40.3943292,8.85430306 C40.248626,8.34005827 39.8837165,8.00456592 39.5956987,7.60011862 C39.2537264,7.11876004 38.8343411,7.1481985 38.5345941,7.52453339 C37.7933065,8.45622083 36.7413247,9.0611679 36.0537309,10.0339631 C35.7675377,10.4389408 35.0343303,10.3503602 35.0223404,11.0338099 C34.8404069,11.0218754 34.651436,10.97122 34.4791466,11.0059627 C34.0871295,11.0849956 33.7011074,11.1982409 33.3171705,11.3128122 C32.9673787,11.416775 32.6884836,11.4175707 32.6493862,10.8463054 C32.5592014,11.5260421 32.2349533,11.5305507 31.7728215,11.3685066 C31.6052238,11.3093644 31.3370153,11.3751369 31.3505691,11.1441378 C31.3570854,11.0308925 31.5622166,10.7373036 31.8296431,10.8664615 C32.0384235,10.9672418 32.2318255,11.0131234 32.2216602,10.7126389 C32.2101916,10.3782074 31.8994972,10.5527165 31.7775132,10.5718117 C30.7823529,10.7253691 30.0595715,10.3758205 29.5505228,9.48683211 C29.3375721,9.11500581 28.9163623,9.05347678 28.5655279,9.20119949 C27.4072009,9.68839273 26.182669,10.2434801 25.4478977,11.2244968 C24.9659565,11.8676343 24.3187635,12.2338912 23.8352585,12.818417 C23.4127454,13.3284184 22.7754571,13.5973427 22.3803123,14.1956595 C22.0357335,14.7167998 20.4885173,14.6494361 20.0837284,14.1036311 C19.3562553,13.1231448 18.2583991,12.4264346 17.8903618,11.1685372 C17.7889691,10.8221712 17.5616826,10.8929826 17.3320503,11.0282404 C16.9233517,11.2695827 16.5172596,11.5159641 16.1059545,11.753063 C15.8932644,11.8758559 15.7259273,12.085638 15.4071528,11.9273069 C15.0855112,11.7679149 14.9781236,12.1296631 14.8266861,12.3163719 C14.7458847,12.4163566 14.8279894,12.7110064 14.7075693,12.6945633 C14.0072037,12.5974959 14.0512535,13.360509 13.6490711,13.5991992 C13.3834692,13.7567347 13.3972836,13.7559391 12.9341092,13.7262354 C12.7990927,13.7177486 12.636708,13.8564542 12.5160272,13.9620083 C11.5980192,14.7674551 10.5906084,15.3731978 9.40647718,15.7219507 C8.89299742,15.872856 8.60289439,15.7365374 8.40297612,15.3655067 C7.99870855,14.615489 7.30642315,14.1537561 6.76635713,13.5421787 C6.5781681,13.3286836 6.43168301,13.2650329 6.2257698,13.5533176 C5.55720352,14.4895136 4.74658318,15.2761305 3.78113697,15.9009684 C3.57939416,16.0314524 3.65706775,16.4541993 3.3799972,16.5218281 C2.7554807,16.6745899 2.11897431,16.7830613 1.48298923,16.8809243 C1.31851931,16.9063846 1.23302624,16.7735137 1.31695542,16.5913135 C1.40635824,16.397444 1.35527091,16.2762424 1.14466601,16.2136526 C0.36819078,15.9839795 0.193816181,15.3384551 0.7364887,14.6621662 C1.52495382,13.6795582 2.32983986,12.710476 3.11934757,11.729194 C3.90729139,10.7502989 4.69315001,9.76901697 5.46284835,8.77527008 C5.73001422,8.43076055 6.00969127,8.09871595 6.37329749,7.87381673 C6.78329935,7.62080511 7.35803178,7.52161607 7.58479695,7.96107126 C7.99349556,8.75378796 8.76267261,9.31842291 8.95086163,10.232076 C9.06815397,10.8025456 9.29622239,10.6219366 9.60404959,10.3856333 C11.5138294,8.91715815 13.4707868,7.52718551 15.7616363,6.72094303 C15.8064681,6.70529556 15.8492146,6.68328302 15.8940463,6.66843118 C18.6100154,5.78315573 18.9386946,6.41939773 19.9961501,8.67952878 C20.5122364,9.78227754 20.2307348,9.93079589 21.3885404,8.99433465 C22.573193,8.03586086 23.6408139,6.92754266 24.9195609,6.08920961 C25.9540793,5.41106421 26.9844272,4.71541487 28.3241663,4.92493182 C29.3094219,5.07901961 29.9962337,5.72162669 30.618665,6.40401548 C31.6487523,7.53355058 32.6759725,7.28106938 33.7519341,6.43345393 C34.9204264,5.51343579 36.006814,4.48600705 37.14872,3.52965496 C38.4767299,2.41682817 39.2654556,2.5695899 40.320044,4.11868935 C40.5483731,4.45418169 40.7222264,4.83237307 40.9753172,5.14558766 C41.5714229,5.8831404 42.3025451,5.97516874 43.1212455,5.52483988 C43.8940717,5.09997131 44.7122508,4.76156164 45.4290373,4.23087374 C45.5377282,4.1502495 45.6550205,3.90121605 45.8280919,4.13566287 C45.9443416,4.29346362 45.8390392,4.45975113 45.7561526,4.60508695 C45.5301694,5.00184311 45.5280842,5.00051706 45.9505972,5.53518312" id="Fill-489"></path>
            <path d="M41.9748501,17.1540909 C41.9860803,17.2252734 41.9975717,17.2961833 42.0090632,17.3673658 C42.6659021,17.3739113 43.2765142,17.1952731 43.8192225,16.744723 C43.2044317,16.8813608 42.5896409,17.0177258 41.9748501,17.1540909 M21.5190834,22.577329 C20.8656397,22.6727845 20.2111512,22.8173315 19.6373639,23.2266994 C20.3171857,23.2111538 20.9387669,22.9932424 21.5190834,22.577329 M30.1627182,21.7935027 C30.9242858,21.9304132 31.9671318,21.590046 32.584012,21.0805862 C31.7540183,21.3249524 30.9582377,21.5592275 30.1627182,21.7935027 M34.1249065,17.7917339 C34.5396422,17.441003 35.1541718,17.3608203 35.4563439,16.8325421 C34.9893745,17.1142723 34.2280681,16.9309977 34.1249065,17.7917339 M6.68575362,25.0610821 C7.45959607,25.1660831 7.97070295,25.0700821 8.3757754,24.34162 C7.77273718,24.5889862 7.24622136,24.6151683 6.68575362,25.0610821 M38.3231912,16.1351712 C37.8752871,15.6900757 36.5861591,16.0713524 36.1045642,16.7979054 C36.7715888,16.3552644 37.563713,16.3740828 38.3231912,16.1351712 M33.4753803,17.6760963 C31.9814961,18.3925583 30.448959,18.9382912 28.7902774,19.2974768 C29.6155701,19.8293005 32.769964,18.7190162 33.4753803,17.6760963 M23.1712358,19.1071112 C21.5363205,19.1305659 20.2101066,20.2812143 18.6185453,20.4691253 C18.4493081,20.4893073 18.2664901,20.6322179 18.3168956,20.8144016 C18.3800984,21.0432222 18.6143666,21.0194946 18.799274,20.9679487 C19.5796457,20.7511282 20.339385,20.4287612 21.1132275,20.2353956 C21.9254617,20.0327571 22.5023831,19.5219336 23.1550433,19.0899292 C24.078013,19.1229295 24.8696149,18.6851977 25.7262478,18.3641944 C25.1425361,17.8154614 23.9769408,18.1795561 23.1712358,19.1071112 M43.7327757,20.523944 C42.3208984,20.9466757 41.1004577,20.6363089 40.0926082,19.4946606 C39.8424087,19.2110213 39.5229996,18.9592914 39.1560578,19.0831109 C38.202009,19.4046597 37.1784894,19.3198406 36.2361932,19.7793909 C34.7885358,20.4854891 33.436205,21.4073169 31.8968775,21.9069584 C31.3142104,22.0962331 30.727887,22.2726895 30.1321615,22.4581459 C30.0752268,22.7753311 30.4439968,22.5473287 30.4998868,22.7445126 C30.4283267,22.7734219 30.3567665,22.8326044 30.2993094,22.8203315 C29.3207108,22.6127839 28.2031705,22.7093304 27.5304003,21.7561387 C27.2773279,21.3972258 26.8790459,21.3077704 26.6244065,20.9712214 C26.5345645,20.8528566 26.0320762,20.9963126 25.7596774,21.1201321 C24.2276626,21.8166847 22.717586,22.5661471 21.1795643,23.2485178 C20.6449522,23.4855202 20.0557559,23.5943396 19.4858861,23.7367047 C19.2432605,23.796978 19.0405937,23.81116 18.8230403,23.5163387 C18.6564148,23.2913364 18.3283871,22.8132405 17.9026823,23.2847909 C17.6005103,22.9130598 16.9885923,23.2801545 16.7297743,22.6487843 C16.4367431,21.9334132 15.8885503,22.0517781 15.2144743,22.3021443 C14.2831472,22.6479661 13.8477792,23.6147943 12.9587614,23.9483432 C12.7756822,24.0170712 12.6712148,24.1921639 12.5967817,24.3858023 C12.5442869,24.5216219 12.466981,24.7466242 12.384974,24.7545334 C11.6074752,24.8300797 11.6756402,25.682634 11.2468014,26.0641834 C10.5635845,26.6712806 9.89603761,27.3086508 8.99422256,27.5606535 C8.71346635,27.638927 8.72312959,27.6487453 8.57530818,28.0313856 C8.54997483,28.097659 8.42800911,28.1385685 8.34312933,28.1622961 C7.76072343,28.3259341 7.51104628,28.1792053 6.88476406,27.4916527 C6.76488769,27.3599241 6.44861256,27.4264702 6.22374642,27.3951063 C5.44520293,27.2857415 5.25507222,26.422278 4.66770412,26.065547 C4.55931916,25.9998191 4.4086249,25.7491801 4.35169015,25.9128182 C4.11350442,26.5995526 3.23153818,26.5777342 3.03252773,27.2939234 C2.96906377,27.5211076 2.79878187,27.720746 2.65775084,27.9176572 C2.50313905,28.1336594 2.31431418,28.3979349 2.0507951,28.3537526 C1.82671247,28.3163886 1.80555782,28.002749 1.80869184,27.7867467 C1.81469872,27.3522877 1.19599039,27.4360158 1.23568801,26.8823737 C1.28113134,26.2480035 1.49346138,25.6951795 1.79641692,25.2263565 C2.54126966,24.0735263 2.86433518,22.7581491 3.28429423,21.4793176 C3.40495411,21.1122229 3.5138614,20.8544929 3.92938058,20.83322 C4.31904408,20.8133107 4.5049961,20.9687668 4.76381415,21.3094067 C5.27335402,21.9792319 5.53974595,22.7352397 5.81475645,23.5016113 C5.9680624,23.9287067 6.26396638,24.087981 6.64945118,24.0143439 C7.57111505,23.8392512 8.4455074,23.5640665 9.02608512,22.6913302 C10.0926975,21.0871317 11.6688498,20.1271217 13.1901567,19.0863837 C13.5490023,18.8409266 13.8741572,18.4893775 14.2136763,18.1855561 C14.6046457,17.8353707 15.0676975,17.6695508 15.5678353,17.6575507 C16.0974852,17.6447323 16.3999184,17.9534628 16.6370594,18.4593772 C17.285541,19.8423915 17.8702974,20.0398481 19.2586695,19.4840242 C20.7465468,18.8883816 22.2192763,18.2365567 23.7411056,17.7546426 C24.4439102,17.5323675 25.0939587,17.1161814 25.8751139,17.1019994 C26.5363927,17.0899993 27.1295065,17.1789093 27.4961872,17.7789156 C27.8934246,18.4282859 28.4282978,18.461559 29.0457003,18.3153757 C30.7148286,17.919917 32.3220599,17.3362746 33.8590369,16.5524483 C35.0306391,15.9548966 36.2260076,15.4099819 37.4762215,15.0360689 C38.415906,14.7546114 39.3819686,14.7747935 40.1443196,15.5597107 C40.7810486,16.2156266 41.4987398,16.2671726 42.3135857,16.0732615 C44.3614084,15.5858928 46.2676778,14.7000654 48.1757753,13.8243291 C50.4030208,12.8026821 52.5396409,11.5713057 54.8232988,10.67866 C55.3649624,10.4670215 55.9024473,10.2022005 56.523245,10.4749306 C56.3114373,10.9655721 55.8959181,10.9873905 55.5498697,11.0874825 C54.7963984,11.3053938 54.0813189,11.6108515 53.4020195,12.008492 C53.3155727,12.0589471 53.1450296,12.1347661 53.2356551,12.2765857 C53.336205,12.4334055 53.4223906,12.2962223 53.5527137,12.2373126 C54.4367693,11.8350357 55.2456084,11.1886653 56.2821864,11.244575 C56.5391763,11.2584842 56.9134308,11.1003008 56.752551,11.658852 C56.6945715,11.8595814 56.9374583,11.826581 57.0380082,11.9043091 C57.1356853,11.9801281 57.2889912,12.115675 57.2137747,12.1748574 C56.9202212,12.4055871 56.9311903,12.9150469 56.6493894,13.0350481 C55.5349831,13.510144 54.4628862,14.1126048 53.498913,14.8097029 C52.4197645,15.5902565 51.0661278,15.9712604 50.2491925,17.142909 C49.3815906,17.0875447 49.1481059,18.2575569 48.2139059,18.2261929 C47.6077337,18.2057382 47.1707987,18.9047454 46.7040904,19.2890221 C45.7960073,20.0368481 44.7677867,20.2686687 43.7191949,20.5269441 C44.2292571,20.020757 44.9884741,20.0545755 45.5277872,19.6042981 C44.6789894,19.9422107 43.7844871,20.0875759 42.9025208,20.3510332 C43.1647341,20.6256724 43.522535,20.1287581 43.7327757,20.523944" id="Fill-491"></path>
            <path d="M24.75672,35.5746564 C24.2572808,35.0400866 24.2572808,35.0400866 23.6625623,35.7063818 C24.0545535,35.6592783 24.3792278,35.6201167 24.75672,35.5746564 M19.8726236,30.6129068 C19.6634236,30.8125489 19.464321,30.9538593 19.5805721,31.2383973 C19.6981176,31.5262214 19.9363157,31.6513743 20.4323891,31.6908098 C19.9448598,31.396413 20.0222742,30.9957595 19.8726236,30.6129068 M53.367158,27.1844852 C52.7504321,27.1910578 52.2307978,27.4931226 51.6888971,27.7179595 C52.2307978,27.4829898 52.9712831,28.1199823 53.367158,27.1844852 M49.1308568,30.0254825 C49.1357761,30.0646442 49.1409544,30.1035319 49.1461326,30.1426935 C49.8387194,30.0504036 50.5315651,29.9608522 51.2228574,29.8606203 C51.2658366,29.8543216 51.3354837,29.7568284 51.3282342,29.7143805 C51.3041554,29.5752609 51.1850564,29.4980331 51.0703588,29.5256927 C50.4217869,29.682613 49.7770986,29.8570602 49.1308568,30.0254825 M51.9154442,31.0817508 C50.9429747,31.3068616 49.9459085,31.381077 48.9656716,31.5596321 C50.0067526,31.7606434 50.9600628,31.413666 51.9154442,31.0817508 M24.8051364,32.4077686 C24.3724961,32.466648 23.9370079,32.5101913 23.5095459,32.5959087 C23.3935538,32.6191866 23.1569092,32.4091379 23.148624,32.7487212 C23.1426691,32.9990269 23.2874003,33.0590017 23.4833959,33.1288353 C24.1094426,33.3509337 24.4154754,32.8169117 24.8051364,32.4077686 M43.1192032,26.5458496 C43.6442747,27.0557722 44.2630718,26.7260478 44.8474339,26.7312511 C44.98388,26.7323465 45.0532681,26.6288284 45.0618122,26.4935428 C45.0682849,26.3864645 44.9986379,26.2673365 44.9090547,26.3059504 C44.3275407,26.5587209 43.6538544,25.9890974 43.1192032,26.5458496 M50.5729909,28.0920488 C50.3712993,28.0315263 48.2471937,28.0778082 48.0501625,28.1449033 C47.9600615,28.1753015 47.85106,28.2043304 47.8790223,28.3289355 C47.8981817,28.4154745 47.9543654,28.5206358 48.0234947,28.5628098 C48.5156844,28.8613145 50.0950413,28.5628098 50.5729909,28.0920488 M35.6602373,33.7239276 C35.9427092,33.8633211 36.2958637,33.6127415 36.5291425,33.9923079 C36.1744345,34.2505555 35.7907285,34.293825 35.4008085,34.2360411 C35.1890194,34.2048213 34.9932827,34.1711368 34.7827881,34.2464477 C34.2830899,34.4255504 33.9058567,34.4277413 33.9035265,33.6749071 C33.9024908,33.331216 32.7159019,32.6832692 32.3309013,32.7599493 C31.8516571,32.8549779 31.2553851,32.8303307 30.9118103,33.0351761 C29.9895695,33.5845342 28.8601998,33.8164914 28.1870313,34.7930672 C28.057058,34.9820288 27.8683119,34.9549169 27.7007966,35.023929 C27.083035,35.2783426 26.306561,35.1750983 25.9262208,35.9876334 C25.7770881,36.3053081 25.7087356,35.6584567 25.3861326,35.8222235 C25.0233983,36.0065296 24.5687506,36.0078989 24.1506094,36.0465128 C23.1268755,36.140172 22.5541645,35.8570034 22.3747392,34.8349673 C22.2579703,34.1692198 22.0050143,34.4132268 21.6749028,34.5016828 C21.8017692,34.1763401 22.0992579,33.8583916 21.4944419,33.8121097 C21.0993438,33.7817115 21.0838091,33.304378 20.8906615,33.0458565 C20.7552511,32.8645629 21.037464,32.9543881 21.1379215,32.9144049 C21.3124275,32.8453929 21.5161904,32.7684389 21.5534736,32.5197763 C21.3359884,32.491569 21.4071889,32.0205342 21.0359106,32.1782761 C20.8023729,32.2774125 20.549158,32.1300772 20.3060406,31.9337214 C20.514205,32.5186809 20.0541202,32.8960565 20.0044093,33.4013235 C19.9671261,33.7773298 19.8205825,34.1563485 19.9207811,34.543583 C19.9893925,34.8078555 19.7993518,34.931639 19.7219374,34.7843037 C19.4928012,34.3480488 18.914912,34.2617837 18.8266233,33.6998282 C18.7919293,33.4793729 18.9071447,33.44651 19.0252081,33.3818796 C19.1463784,33.3156061 19.5010864,33.4325433 19.3724077,33.2194822 C19.1217818,32.8062312 19.2338903,32.3932542 19.1834026,31.9827418 C18.7111491,32.4515858 18.8330961,31.653839 18.5573559,31.630835 C18.4923693,31.6253579 18.4224633,31.1337837 18.7243535,31.1365223 C19.5057468,31.1430949 19.4332517,30.4913141 19.3926027,30.068752 C19.3289106,29.4090294 19.6416751,29.0995704 20.0823415,28.800792 C20.3407346,28.9437456 19.9735989,29.4506557 20.4331659,29.48078 C20.8057387,29.5051534 20.7645719,29.1162758 20.9307927,28.9358037 C21.0208937,28.837215 21.1493136,28.7087758 21.0397942,28.5474738 C20.9315695,28.3886365 20.7707858,28.4888683 20.6514278,28.5241959 C20.0145068,28.7120621 20.069396,28.0668539 20.1949678,27.9206141 C20.5973154,27.4523178 20.7718214,26.8030017 21.2774745,26.431651 C21.813938,26.0381178 22.1828861,26.1983245 22.2981015,26.8651674 C22.3100114,26.9339056 22.3478124,27.0097641 22.3957109,27.057963 C23.4290246,28.1049201 23.2167176,29.4484649 23.1483651,30.7366904 C23.0901101,31.8375974 23.1268755,31.8833316 24.1586357,31.6187853 C25.3605004,31.3106956 26.4279903,30.6761679 27.5281029,30.1243451 C28.7946954,29.488448 30.0379858,28.7928501 31.4001164,28.4091758 C32.4810696,28.1049201 33.4633778,28.2889524 34.1854805,29.2814118 C34.5632316,29.8000978 34.9730876,29.8576079 35.5372546,29.6240075 C37.4161715,28.8457046 39.1286086,27.7365818 40.8638298,26.675658 C41.7179771,26.1536857 42.6306382,25.7516629 43.5363088,25.3959221 C44.597067,24.9793849 45.6997688,25.2609104 46.4855635,26.1777852 C47.2177637,27.0324943 48.0496447,27.2326841 49.0759677,27.0760376 C51.950915,26.6359487 54.6826846,25.653622 57.4082403,24.6529468 C60.2202722,23.620778 62.98337,22.4511328 65.7249782,21.2256206 C65.8748876,21.1585255 66.0372248,21.1015632 66.1980085,21.0873226 C66.4564016,21.0637708 66.7885844,21.0541858 66.8714359,21.3428316 C66.9374582,21.5728719 66.5998383,21.6279172 66.4470809,21.7675845 C66.301314,21.9004054 65.9370263,21.8987623 66.0491347,22.1822047 C66.1679748,22.4829002 66.4551071,22.2402625 66.6720745,22.2298559 C66.9674919,22.2161631 67.6492044,21.810854 67.147435,22.7063679 C67.1233563,22.7493635 67.1438103,22.8493215 67.1772098,22.8958773 C67.8097292,23.7766029 67.4853138,24.5450469 66.461321,24.9719907 C65.7511282,25.2683045 65.0463726,25.6533481 64.3949526,26.0718023 C63.120075,26.8895407 61.7483647,27.48655 60.421705,28.1772185 C58.103934,29.3843822 55.7242834,30.4603682 53.2638525,31.3161728 C51.8276734,31.8156888 50.3560235,32.088177 48.8403587,32.0380611 C48.5977592,32.0301192 48.3717299,32.026559 48.1702972,32.2215456 C48.354124,32.4214615 48.5798943,32.5134776 48.8263775,32.564689 C48.426619,32.4833533 47.9952734,32.5000586 47.7065876,32.0917371 C47.5854173,31.9208501 47.4090989,31.9367338 47.2213885,31.9044186 C46.9679147,31.8606014 46.5124903,31.8260954 46.7530186,31.2904302 C46.7708834,31.250447 46.7688121,31.2000572 46.7758027,31.154323 C46.1924763,31.3131603 46.3944269,30.5532059 46.0526644,30.4573558 C45.6182118,30.335763 45.2761904,30.089839 44.9704166,29.7510774 C44.7417982,29.4983069 44.4179006,29.5078919 44.1268847,29.5552693 C43.8710807,29.5968956 43.5510667,30.0115158 43.5003202,29.3534363 C43.4992845,29.342482 43.3247785,29.3197519 43.2458107,29.3479592 C43.1010795,29.3994444 43.1003027,29.5530784 43.1572631,29.657692 C43.320377,29.9564705 43.2667825,30.2382698 42.9812037,30.322344 C42.5281095,30.4562603 42.2528871,30.9760418 41.7505999,30.9396188 C41.4890998,30.9207226 41.6255459,30.5512889 41.4116854,30.3919038 C41.2490893,30.7788644 40.6178644,30.8443164 40.8420813,31.469533 C40.8501076,31.4922631 40.7840853,31.5790759 40.7579353,31.5766112 C40.3025109,31.5322463 40.2499519,31.7800873 40.1419861,32.2108651 C40.0270296,32.6695764 39.4286864,32.6928543 39.0245264,32.8736002 C38.9613521,32.9015336 38.851056,32.9406953 38.8500204,32.977666 C38.8197278,33.9816275 38.0313439,33.325465 37.6579943,33.5798786 C37.5440735,33.6573802 37.443616,33.5234639 37.3532561,33.3758548 C36.9889684,32.7810364 36.6661064,32.7758331 36.2578038,33.2679549 C36.1037518,33.4536303 35.8717676,33.5667334 35.6602373,33.7239276" id="Fill-493"></path>
            <path d="M51.3651265,32.1422486 C51.07437,32.4877997 50.760305,32.6158493 50.3651265,32.5996801 C50.7054302,32.1367719 51.0661121,32.3939141 51.3651265,32.1422486" id="Fill-495"></path>
        </g>
    </g>
</svg>