<?xml version="1.0" encoding="UTF-8"?>
<svg width="187px" height="22px" viewBox="0 0 187 22" version="1.1" xmlns="http://www.w3.org/2000/svg" xmlns:xlink="http://www.w3.org/1999/xlink">
    <!-- Generator: Sketch 63.1 (92452) - https://sketch.com -->
    <title>Fill 157 Copy</title>
    <desc>Created with Sketch.</desc>
    <g id="Page-2" stroke="none" stroke-width="1" fill="none" fill-rule="evenodd">
        <path d="M132.782723,83.446487 C134.07879,86.5411068 135.339022,89.3841314 136.441575,92.2858616 C136.74857,93.093362 137.56324,94.4196276 136.478605,94.8892718 C135.285268,95.4056408 134.601995,93.9991044 134.140906,93.0813813 C131.650306,88.1381366 129.283938,83.1301961 126.808868,78.1797629 C119.33468,63.2314197 110.963399,48.7934552 102.29229,34.5172303 C90.8618126,15.6979168 77.9154734,-2.07667802 65.3848315,-20.1424043 C58.7635399,-29.6874432 51.6644355,-38.9125969 45.880511,-49.0291161 C44.3073122,-51.7822853 43.1414488,-54.6959962 42.3578357,-57.7630603 C41.0330996,-62.9483155 43.4388873,-66.4143375 48.706774,-66.7845418 C51.497201,-66.9810256 54.3366039,-67.4123314 56.9884652,-65.9614664 C58.4422108,-65.1659466 59.5901561,-64.3764172 58.4637124,-62.4379369 C57.5080867,-60.7941822 58.2582528,-59.275027 58.7265094,-57.5342286 C60.404827,-51.2826893 64.6657231,-46.3933579 68.5598978,-41.9772648 C73.5327351,-36.3403365 78.1340728,-30.3595616 82.8046934,-24.5417244 C88.2780396,-17.7246952 93.4360293,-10.5482445 98.4626205,-3.31907859 C104.696884,5.6460935 110.022108,15.1863401 116.386575,24.0664491 C118.270352,26.6902266 120.376312,29.6530584 120.465902,33.2808201 C120.468291,33.3754678 120.555492,33.5240287 120.634331,33.5503863 C124.625263,34.8874345 122.541999,40.5459282 126.540098,41.9165224 C126.960573,42.0614891 127.494529,42.7300133 127.483778,43.14215 C127.347602,48.3813184 131.745869,51.7622774 132.877091,56.5006518 C133.284426,58.20431 134.007118,60.052935 135.962567,60.8688219 C136.314954,61.0161848 136.755737,61.4906213 136.770071,61.8308737 C136.957613,66.4266775 140.991548,69.69981 141.030967,74.3375463 C141.033356,74.6430547 141.148031,75.0839451 141.366631,75.231308 C145.111489,77.7748146 142.419013,82.9636641 145.766092,85.8342444 C146.841171,86.7567597 143.962349,91.4747669 142.169356,91.3034426 C140.310664,91.126128 140.430118,91.643695 140.700082,92.9160474 C140.856565,93.658852 141.072776,94.5562078 140.019198,94.775455 C138.877226,95.0114752 138.658626,94.0602061 138.308628,93.2359326 C137.079455,90.3389947 135.796527,87.4636222 134.506433,84.5930419 C134.250803,84.0239577 134.016675,83.3374625 132.782723,83.446487" id="Fill-157-Copy" fill="#FEE6C6" transform="translate(94.000000, 14.000000) rotate(-58.000000) translate(-94.000000, -14.000000) "></path>
    </g>
</svg>