<?xml version="1.0" encoding="UTF-8"?>
<svg width="80px" height="80px" viewBox="0 0 80 80" version="1.1" xmlns="http://www.w3.org/2000/svg" xmlns:xlink="http://www.w3.org/1999/xlink">
    <!-- Generator: Sketch 63.1 (92452) - https://sketch.com -->
    <title>Artboard Copy</title>
    <desc>Created with Sketch.</desc>
    <g id="Artboard-Copy" stroke="none" stroke-width="1" fill="none" fill-rule="evenodd">
        <path d="M64.9595858,39.697393 C63.9381331,40.8184349 62.9011115,41.9279855 61.8986121,43.0637107 C59.4989766,45.7820457 57.1155869,48.5131489 54.7254281,51.2391448 C57.449979,48.8463971 59.8685679,46.2110549 62.2079586,43.5137873 C63.2355036,42.3289048 64.1005908,41.0182561 65.0394609,39.7644257 C65.934332,38.7219078 66.82988,37.6787515 67.7254281,36.6362337 C67.5270943,36.5040835 67.3294374,36.3719334 67.1317806,36.2391448 C66.40749,37.392107 65.6831995,38.5444308 64.9595858,39.697393 M43.5776596,67.2312785 C41.334606,69.2887351 39.6731602,72.0710005 36.2370651,73 C36.467539,72.4144734 36.6451395,71.9648485 36.8695126,71.3962251 C36.0208263,71.5693138 35.2507722,71.8803325 34.5329138,71.7890553 C34.2848154,71.7566012 34.1661891,70.7214497 34.0035016,70.1940701 C33.4829017,70.5754061 32.8484205,71.1555236 32.1081925,71.52807 C31.7909519,71.6876361 31.1022416,71.5517345 30.8656669,71.2927776 C30.6758648,71.0858825 30.7572086,70.3461988 30.9897161,70.087918 C33.2517499,67.578132 35.6466451,65.1853161 37.8564833,62.632934 C40.8255298,59.2029382 43.6705271,55.6647619 46.5480618,52.1570114 C46.7595555,51.8994068 46.8036167,51.5052243 46.6409292,50.9670267 C45.2092794,52.5829719 43.7864419,54.2070306 42.3425905,55.8121578 C38.5553616,60.0244333 34.7728778,64.2414418 30.9429434,68.414502 C30.5606279,68.8316727 29.8637832,68.9621654 29.3133572,69.2258552 C29.4123254,68.5544604 29.279464,67.6964543 29.6475444,67.2414204 C32.5440593,63.6633526 35.5490326,60.1731814 38.4916424,56.6323007 C39.5897828,55.3111472 40.6072574,53.923057 41.6674375,52.5701255 C42.2659918,51.8067773 42.0538202,51.5261843 41.119723,51.4835883 C39.709087,51.4193561 38.2943838,51.1306496 36.8966272,51.2111088 C36.177413,51.2523526 35.3226259,51.7337555 34.8271069,52.2841235 C33.951306,53.2563951 33.3025897,54.4328573 32.5596502,55.5234513 C32.405775,55.4301456 32.2532555,55.33684 32.1000581,55.2435344 C32.8572327,53.981204 33.6137295,52.7181974 34.371582,51.4551909 C34.2305862,51.3672943 34.0902682,51.2793977 33.9499503,51.1915011 C33.211078,52.3314524 32.4844073,53.4801934 31.7299441,54.6100027 C30.9971726,55.707358 30.3450669,56.268544 28.7724213,55.4835597 C27.5719233,54.8838345 26.0358824,54.3131827 24.4476459,54.8277159 C24.0199134,54.966322 23.2410471,54.6181163 22.9055042,54.2421893 C22.6682516,53.9771472 22.8038245,53.2536906 22.9590555,52.7973044 C23.2363021,51.9805421 23.6538666,51.2104327 24.0124569,50.4207155 C23.8653603,50.3389041 23.716908,50.2577687 23.5691335,50.1759573 C23.1529247,50.7371433 22.7584076,51.3172608 22.3096613,51.8520779 C22.0934225,52.1090064 21.776182,52.2807428 21.5043583,52.4910185 C21.3247242,52.1860849 21.0610349,51.9000829 20.985792,51.5714849 C20.8929245,51.1671605 20.8942803,50.7168595 20.9634224,50.3050977 C21.2582935,48.5566315 20.6732964,47.8203284 18.8817006,47.283483 C16.7769314,46.6526559 14.677585,45.9555682 12.6643275,45.0826873 C11.421124,44.5444897 10.3989044,43.6127857 10.4497442,41.9894031 C10.4585565,41.6885263 10.1338594,41.2517478 9.84305551,41.0860965 C7.69151362,39.8555441 7.30852019,36.8393384 9.30822043,35.2761312 C10.7385145,34.157816 12.3335296,33.0861536 14.0315802,32.5040076 C18.5671715,30.9475617 23.1827508,29.609505 27.8023973,28.312692 C29.0381442,27.9658385 29.5424754,27.3296024 30.0122355,26.1950601 C31.9821097,21.4357972 33.9377487,16.6548983 36.2560453,12.0612867 C37.1148996,10.3594733 38.8332861,8.99842822 40.3835622,7.7604384 C41.8165677,6.61575421 43.4075156,6.8131835 44.9428787,8.01871918 C45.811901,8.7002559 47.0401914,8.90647485 47.9973361,9.50146723 C49.5306656,10.4548073 51.2476963,11.3182224 52.3939651,12.6434326 C54.2933414,14.8408477 55.7656631,17.4020194 57.5023519,19.7481825 C57.8982248,20.2829995 58.5896466,20.6751536 59.2261613,20.942224 C60.6456096,21.5372164 62.0975953,22.0733856 63.5705948,22.5209822 C65.810937,23.2025189 67.4879737,24.6798579 69.1399295,26.2180484 C69.627314,26.6724062 70.227902,27.0422481 70.6041168,27.5723322 C71.203349,28.4168157 72.3502957,29.4377685 69.8042367,30.0361415 C70.9023771,30.0929363 71.4514474,30.1213336 71.9991619,30.1490549 C71.9252746,31.0902246 72.1665944,32.2267953 71.7225932,32.9380816 C69.6395156,36.2761241 67.6045664,39.6898928 65.1147701,42.7182688 C60.1351776,48.7729923 54.8661369,54.590395 49.7313134,60.5180066 C49.3795018,60.9243593 49.1463164,61.4328073 48.858224,61.8932503 C48.6467303,62.1339518 48.4359144,62.3753294 48.2244207,62.6160308 C46.7927709,64.0453648 45.3611211,65.4746987 43.9287934,66.9040327 C43.8115229,67.0135654 43.6949302,67.1224219 43.5776596,67.2312785" id="Fill-1" fill="#E5FEC9" transform="translate(40.000000, 40.000000) rotate(-96.000000) translate(-40.000000, -40.000000) "></path>
    </g>
</svg>