<svg width="80" height="80" xmlns="http://www.w3.org/2000/svg"><path d="M28 45c-.292.03-.448.009-.575.063-1.591.67-2.405 2.185-3.41 3.487-.04.052.013.208.054.299.082.175.242.188.37.09C25.806 47.876 27.496 47.137 28 45m23.414-13.712c1.616.264 2.618-1.065 3.906-1.597.56-.232.991-1.26 1.602-.396.546.773.268 1.786-.463 2.403-.396.336-.8.539-.74 1.2.968.087 1.778-.407 2.27-1.088.84-1.163 1.764-.673 2.303-.046.332.387.345 1.453-.316 2.097-.275.269-1.166.393-.212 1.149.373.295-.698.883-1.03 1.406-.17.265-.584.354-.822.591-.241.24-.196.537.07.783.395.363.469-.032.6-.263.756-1.319 1.994-2.128 3.195-3.236.713 1.483-.462 2.148-1.045 2.955-1.159 1.6-2.585 2.947-4.122 4.172-.174.139-.318.38-.192.739 1.174-.266 1.903-1.251 2.958-2.07.1 1.586-1.144 1.962-1.821 2.577-2.008 1.822-4.174 3.465-6.311 5.133-.691.539-.82 1.161-.697 1.974.352 2.33.707 4.661.98 7.002.163 1.405.237 2.825-1.353 3.622-.393.196-.561.96-1.01.017-.23-.486-.595.029-.828.196-.694.502-1.148.68-1.438-.445-.25-.969-.698-1.983-1.978-.908-.159.133-.53.187-.704.091-1.47-.802-3.473-.411-4.536-2.111-.39-.626-.9-.703-1.5-.32-1.284.816-2.589.048-3.88.019-.38-.008-.174-.515-.086-.759.245-.681.546-1.34.933-2.27-1.488.644-2.925.407-4.095 1.454-.407.364-1.395.096-2.11.032-.274-.024-.55-.268-.244-.647.563-.695.542-1.692 1.29-2.32-.765-.473-1.3-.346-1.751.27-.118.158-.26.299-.39.448-1.827 2.082-2.833 2.133-4.866.238-.141-.13-.399-.3-.381-.416.233-1.56-.87-2.643-1.61-3.628-.903-1.205-1.45-2.5-1.911-3.848-.305-.892.327-1.683.94-2.316 2.4-2.48 5.117-4.515 8.272-5.878 1.31-.566 1.805-1.118 1.19-2.736-1.137-2.983-1.96-6.104-1.709-9.38.294-3.836 4.184-6.825 7.862-6.057.376.078.856.102 1 .52.167.479-.34.662-.59.937-.658.72-1.488 1.334-1.406 2.685.884-.306 1.156-1.091 1.607-1.663 1.124-1.426 3.371-1.173 4.002.545.235.637.647.492 1.016.61 1.351.43 2.01 1.63 1.457 2.708.78.328 2.44.095 1.098 1.787-.082.104-.073.282-.106.426 1.67.201.386 1.42.69 2.092.365.808.898.348 1.363.17 2.148-.818 4.171-1.95 6.373-2.649.557-.177 1.195-.362 1.515.044.502.64-.405.835-.643 1.259-.497.886-1.662 1.325-1.596 2.696" fill="#FEE0E0" fill-rule="evenodd"/></svg>