<?xml version="1.0" encoding="UTF-8"?>
<svg width="80px" height="80px" viewBox="0 0 80 80" version="1.1" xmlns="http://www.w3.org/2000/svg" xmlns:xlink="http://www.w3.org/1999/xlink">
    <!-- Generator: Sketch 63.1 (92452) - https://sketch.com -->
    <title>Artboard</title>
    <desc>Created with Sketch.</desc>
    <g id="Artboard" stroke="none" stroke-width="1" fill="none" fill-rule="evenodd">
        <g id="Group" transform="translate(6.897226, 0.159662)" fill="#FFF7CC">
            <path d="M16.1148749,40.8192064 C16.0554501,40.6978761 15.996459,40.5761125 15.9370342,40.4543488 C14.0627666,41.1238321 12.1889328,41.7933154 10.3146652,42.4623654 C10.3502333,42.555963 10.3858015,42.6495607 10.4209359,42.742725 C12.3190601,42.1014077 14.2171844,41.4605237 16.1148749,40.8192064 M25.3513141,37.592687 C25.3860148,37.6871513 25.4207154,37.7816156 25.455416,37.8760799 C34.4693375,35.641869 43.4836927,33.4072248 52.498048,31.173014 C52.4763601,31.0841828 52.4542384,30.9953517 52.4325505,30.9065206 C43.4056163,33.1350983 34.3782484,35.3641093 25.3513141,37.592687 M17.6907171,34.0680417 C17.6456063,33.9779106 17.6004955,33.8877795 17.5549509,33.7980817 C11.4328929,35.8754299 5.35334312,38.0520088 -0.393948133,41.5497881 C5.77061816,38.9992518 11.7308845,36.5336467 17.6907171,34.0680417 M18.3508965,56.8218068 C18.0216743,57.0922 17.6924521,57.3621599 17.4018344,57.6004873 C16.6661811,57.4678906 15.9617584,57.3413604 15.2573357,57.2143969 C15.2486605,57.1168994 15.2395516,57.0189685 15.2304427,56.9210376 C14.955874,57.1671648 14.6813053,57.4137253 14.3564207,57.704918 C13.2780987,56.7494419 12.2904321,55.8637307 12.7658307,54.1239408 C13.6971088,50.7154259 14.488283,47.2696453 15.3328095,43.8381643 C15.5184579,43.0850498 15.6850209,42.3280354 15.9183826,41.3235938 C14.5104047,41.7972153 13.2833038,42.1386734 12.1173627,42.6270279 C11.3196821,42.9615529 10.6100543,43.5040727 9.85574941,43.9443283 C9.6562208,44.0608921 9.44454698,44.1661895 9.22593304,44.2389877 C7.18727123,44.9171374 5.15121197,45.6009203 3.10430877,46.252204 C2.28580774,46.5126309 1.44301628,46.6959263 0.611502518,46.9147542 C0.641431809,46.7700244 0.671361099,46.6252947 0.701290389,46.480565 C0.0883905747,46.0312096 -0.481567215,45.4999562 -1.14651797,45.1485316 C-2.77527862,44.2870865 -3.21597658,42.0303428 -1.74293499,40.8924379 C-0.0742686118,39.6033034 1.69936716,38.3475348 3.61484174,37.5008226 C8.07040217,35.5305051 12.6278957,33.787682 17.1706415,32.0201595 C17.9939138,31.6999341 18.4016462,31.3151437 18.6415143,30.4359324 C19.1880491,28.4309491 19.8347821,26.4415654 20.6198837,24.5184801 C20.9187429,23.7870317 21.6908318,23.2380121 22.2868151,22.6460936 C22.4273526,22.5065637 22.7739251,22.4220658 22.9469945,22.4957307 C23.6457784,22.7934232 24.3150667,23.1608807 24.9934639,23.5062387 C26.6868545,24.3702838 27.1908811,25.8206143 27.0347283,27.6089363 C26.9982926,28.0236259 27.0295232,28.4443821 27.0295232,28.996435 C29.8871198,28.3234851 32.573382,27.5773037 35.3034538,27.0681498 C43.3900011,25.5601875 51.486091,24.1020572 59.5956274,22.7240916 C61.6043599,22.3830668 63.6759873,22.3986664 65.7211554,22.2972689 C66.196554,22.2738695 66.681929,22.4441653 67.1625327,22.5251966 C67.1881244,22.6777261 67.2141499,22.830689 67.2397416,22.9832185 C66.2338572,23.2757112 65.2409855,23.7610324 64.2199196,23.8294973 C57.7616993,24.2623865 51.4357751,25.5203218 45.1298037,26.8566884 C39.3538844,28.0812578 33.6204734,29.504289 27.8705796,30.8475887 C27.4723899,30.9407531 27.0902493,31.0997824 26.700301,31.2284792 C26.7237239,31.33291 26.7467131,31.437774 26.770136,31.5426381 C27.0715977,31.4967059 27.3765295,31.4672399 27.6740873,31.4026749 C36.213044,29.5385214 44.7264089,27.5465378 53.2996325,25.8557134 C57.7309024,24.9821352 62.2662743,24.6320106 66.7587042,24.0777911 C67.1794493,24.0262258 67.6292561,24.2103878 68.0656165,24.2849193 C67.8548102,24.6346106 67.6440039,24.9847352 67.4037021,25.3838252 C69.5737925,24.9678356 68.159742,26.7292916 68.4707463,27.5357048 C68.1966114,27.6778346 67.7650223,27.901429 67.2102461,28.1891551 C67.5646262,28.2740863 67.7780351,28.3252184 67.9918777,28.3767838 C68.0005528,28.4370156 68.009228,28.4972474 68.0183369,28.5579126 C66.2399298,28.9019707 64.4610889,29.2455954 62.6826818,29.5892202 C62.6557889,29.4986558 62.6288959,29.4080914 62.6020029,29.317527 C63.1780333,29.1784304 63.7540637,29.0393339 64.3296603,28.9002374 C64.3066712,28.8170395 64.283682,28.7334082 64.2606928,28.6502103 L56.2752112,30.1629392 C56.2825851,30.2530703 56.2903927,30.342768 56.2977666,30.4324658 C57.0503364,30.3332349 57.8024725,30.2335707 58.5550423,30.1343399 C58.5754289,30.2184045 58.5958156,30.302469 58.6157684,30.3865336 C57.7894598,30.5815287 56.9605485,30.768724 56.1364087,30.9723856 C46.0406952,33.46659 35.9458492,35.9659943 25.8484006,38.4545654 C25.0940958,38.6404608 24.5571036,38.9394533 24.4803284,39.8260312 C24.4582068,40.0795249 24.0721623,40.2992194 23.8591872,40.54058 C23.7602904,40.6528105 23.5724733,40.8417392 23.6015351,40.888538 C24.6095883,42.5459966 23.030276,43.8130316 22.9370181,45.3001945 C22.9153302,45.6433859 22.8238073,46.0537423 22.6090971,46.2946696 C22.3618552,46.5728627 22.7513697,47.6115368 21.7663057,47.0802834 C21.5958388,47.5933372 21.425372,48.1072577 21.2549052,48.6207449 C20.4533207,50.591929 19.6196382,52.5514134 18.8675021,54.5412304 C18.5946684,55.263579 18.5174595,56.0595925 18.3508965,56.8218068" id="Fill-1" transform="translate(33.000000, 40.000000) rotate(61.000000) translate(-33.000000, -40.000000) "></path>
            <path d="M33.1027742,51.840338 C33.6304026,50.3559545 34.1766128,48.8778038 34.6768573,47.3852695 C34.9032632,46.7092421 35.0382265,46.0039682 35.2147546,45.3121189 C35.4025297,45.1548586 35.5903048,44.9980778 35.7780798,44.840338 C35.8861483,44.8949956 35.9947057,44.9486942 36.1027742,45.0028723 C35.1027742,47.2821873 34.1027742,49.5615024 33.1027742,51.840338" id="Fill-4"></path>
        </g>
    </g>
</svg>