<svg width="80" height="80" xmlns="http://www.w3.org/2000/svg"><path d="M46.335 58.235l-1.812-.704c.507.458 1.116.668 1.812.704m-23.842-20.44l1.443.292c.072.014.097.288.207.04.028-.063-.045-.243-.065-.242-.496.033-.923-.512-1.585-.09m1.593 1.825c-.431-.24-.628-1.004-1.254-.229.382.158.7.461 1.254.23m.264.316c.516.374 1.01.544 1.347.933.101.117.27.275.414.115.116-.128-.01-.296-.108-.436-.368-.525-.88-.7-1.653-.612m17.982 19.718l-.108.163c.618.792 1.484 1.21 2.484 1.425l-2.376-1.588m-21.91-22.322c-.441.041-.683.089-.62.623.034.282.303.671-.088.972-.067.051.085.144.172.164.067.015.16.146.21-.032.17-.583.6-.586 1.114-.467-.279-.212-.126-.724-.672-.713-.146.003-.314.358-.428.043-.083-.228.063-.416.313-.59m2.314 1.375c-.442.425-1.104.164-1.28.858-.072.284-.42.01-.637-.005-1.268-.084-2.51-.34-3.717-.69-.51-.147-.771-.711-.906-1.247-.032-.126-.027-.304.15-.364.228-.078.171.163.254.25.114.12.215.254.446.249.016-.497.117-.982-.217-1.445-.236-.326.197-.53.341-.662.343-.316.262-.645.297-1.013.034-.353.22-.65-.219-.907-.165-.096-.274-.43-.12-.703.331.038.27.345.356.55.575-.304.234-.634.107-.953-.066-.165-.241-.328-.051-.517.21-.21.301.176.537.088-.214-.49-.09-.823.474-.554.385.184.523-.355.868-.115-.212.153-.27.414-.378.66.343.168.315-.274.527-.327.247.265-.103.672.333.869-.308.11-.997-.258-.453.44.177.226-.155.704.381.81.138.029-.04.212-.095.26-.448.387-.394.928-.131 1.243.319.382.533 1.122 1.35.803.201-.078.473.003.705.042.348.058.647.254.98-.191.162-.217.712-.269.922.222.207.484.556.606.957.241.25-.227.206-.002.347.067.547.272.556 1.172 1.396 1.093.414-.04.65-.01.293-.497.626.425 1.244.863 1.883 1.269.407.259.425.622.323 1.022-.05.194-.19.316.065.524.25.204.16.615-.012.86-.308.436-.339.93-.472 1.41-.159.568.128.875.609.871 1.19-.01 2.323.427 3.511.35.495-.033.888.592 1.427.171.105.15.184.328.32.44.308.255.639.484.97.71.3.206.477.423.057.813.585-.358.793-.109.958.352.06.168.28.335.091.47-.092.066-.45.091-.517-.198-.053-.226-.14-.405-.366-.208-.253.22.078.351.17.434.745.677.928 1.458.558 2.413-.155.4.062.766.398.946 1.107.593 2.31 1.196 3.534 1.15.803-.031 1.495.241 2.254.25.662.007 1.272.333 1.986.263.622-.06 1.543 1.185 1.373 1.843-.304 1.182-.154 2.474-.9 3.552-.206.297-.008.429.242.522.445.166.892.326 1.335.497.23.088.498.086.575.433.079.35.427.206.668.206.128 0 .306-.249.369-.145.365.605.93.09 1.369.253.29.107.28.097.549.476.078.11.288.149.446.176 1.204.207 2.308.609 3.325 1.31.44.303.517.615.354 1.004-.328.786-.252 1.614-.387 2.419-.047.28-.005.434.349.413a8.982 8.982 0 013.363.422c.228.075.508-.251.735-.079.511.39.996.816 1.473 1.249.123.112.073.262-.12.311-.208.053-.27.169-.186.372.31.748-.082 1.29-.949 1.293-1.26.006-2.52-.01-3.779-.006-1.256.004-2.514.01-3.77.038-.436.01-.87 0-1.274-.14-.454-.16-.893-.544-.694-.997.358-.816.313-1.77.905-2.49.37-.45.085-.514-.292-.605-2.343-.56-4.655-1.206-6.723-2.479-.04-.025-.084-.044-.124-.07-2.397-1.553-2.11-2.21-1.019-4.453.532-1.095.825-.97-.631-1.28-1.49-.318-3.024-.45-4.48-.916-1.178-.378-2.367-.74-3.048-1.914-.5-.862-.433-1.8-.294-2.714.23-1.511-.613-2.15-1.95-2.453-1.45-.33-2.932-.527-4.393-.813-1.701-.331-2.079-1.04-1.538-2.835.117-.388.301-.761.385-1.155.198-.928-.19-1.554-1.055-1.907-.817-.333-1.595-.756-2.458-.979-.131-.034-.399.032-.326-.25.05-.19.245-.212.41-.24.451-.074.451-.071.601-.736m11.532-4.222l.144-.161c-.408-.515-.932-.877-1.623-1.015l1.479 1.176M51.356 46.97c.486.448 1.01.865 1.69 1.054-.44-.519-1.001-.865-1.69-1.054m-6.048-6.224c-.373-.678-1.294-1.274-2.078-1.433l2.078 1.433m-5.604-.561c-.533-.102-.982-.529-1.583-.431.513.186.85.893 1.583.431m22.918 16.75c-.406-.668-.802-1.005-1.623-.861.572.313.923.706 1.623.86m-26.847-18.97c-.064.629 1.043 1.39 1.911 1.308-.764-.24-1.248-.867-1.911-1.307m4.248 2.798a20.999 20.999 0 014.209 2.62c-.106-.976-2.954-2.729-4.209-2.62m7.597 7.107c1.047 1.256 2.776 1.562 3.923 2.68.123.12.349.172.459.018.138-.193-.028-.36-.185-.472-.66-.47-1.388-.857-2.025-1.337-.669-.504-1.429-.63-2.175-.866-.556-.738-1.394-1.078-2.182-1.541-.06.799.957 1.475 2.185 1.518M35.78 30.999c1.217.831 1.744 1.975 1.491 3.477-.063.373-.058.78.27.986.85.54 1.428 1.388 2.378 1.831 1.46.681 3.027 1.152 4.385 2.034.513.333 1.02.678 1.538 1.024.283-.155-.126-.298-.008-.466.067.038.158.056.185.108.454.892 1.233 1.7.915 2.822-.12.423.062.788-.04 1.198-.035.144.393.445.66.578 1.506.753 3.039 1.455 4.537 2.22.52.267.976.656 1.445 1.01.2.15.338.299.246.653-.07.271-.235.827.4.861-.1.469.57.713.243 1.312-.372.678.065 1.03.684 1.396.855.506 1.88.236 2.7.717.168.099.37.07.567.006.138-.045.362-.126.42-.068.548.557 1.167-.033 1.734.06.902.15 1.817.267 2.58.81.238.168.24.155.63.029.067-.022.176.047.248.098.493.35.536.636.396 1.555-.027.176.224.38.341.575.405.674-.146 1.365-.054 2.046.017.125-.083.4.08.341.684-.247 1.222.452 1.904.156.216-.093.479-.087.72-.1.266-.017.59-.036.721.196.112.198-.118.412-.288.545-.341.27.113.697-.342 1.015a3.483 3.483 0 01-1.64.606c-1.365.147-2.59.724-3.848 1.202-.362.137-.63.215-.908-.095-.261-.29-.257-.532-.155-.948.2-.817.62-1.5 1.042-2.196.235-.388.173-.718-.127-.972-.716-.606-1.48-1.112-2.524-1.014-1.918.18-3.656-.44-5.422-.967-.417-.125-.894-.156-1.344-.229a2.051 2.051 0 01-1.263-.72c-.343-.404-.293-.833-.05-1.336.667-1.374.453-1.953-.853-2.682-1.4-.781-2.833-1.515-4.165-2.395-.615-.406-1.347-.65-1.85-1.248-.425-.506-.73-1.023-.494-1.685.255-.718-.056-1.154-.558-1.542a21.433 21.433 0 00-4.4-2.631c-1.201-.535-2.377-1.121-3.454-1.857-.81-.553-1.403-1.317-1.272-2.403.109-.908-.303-1.498-.967-2.01-1.667-1.284-3.555-2.208-5.437-3.14-2.195-1.088-4.497-1.973-6.628-3.186-.505-.288-1.049-.54-1.228-1.193.515-.144.793.165 1.089.37a9.4 9.4 0 002.067 1.09c.094.036.26.12.313-.039.059-.177-.102-.157-.23-.222-.869-.434-1.88-.655-2.489-1.496-.15-.209-.51-.4.026-.626.193-.082.014-.25.011-.377-.002-.123.006-.328.1-.307.364.083.753-.246 1.023-.102a16.357 16.357 0 003.362 1.331c1.286.348 2.434 1.16 3.859 1.057.503.71 1.559.155 2.122.9.366.484 1.184.384 1.777.505 1.152.235 1.98.888 2.84 1.54-.714-.077-1.166-.689-1.855-.824.797.447 1.472 1.05 2.232 1.57.049-.377-.563-.342-.388-.754m23.64 5.275c-.101.725-.101.725.79.768l-.79-.768m-.783 6.919c.287.036.522.102.67-.167.15-.273.097-.537-.184-.947.078.564-.282.756-.486 1.114M34.894 19.32c.393.475.955.689 1.471.968-.524-.273-.495-1.25-1.47-.968m4.873 1.504l.082-.085c-.508-.48-1.014-.963-1.527-1.437-.031-.03-.151-.022-.18.01-.092.107-.078.248.016.32.53.405 1.072.796 1.61 1.192m-.932-2.828c.787.614 1.472 1.342 2.227 1.991-.499-.935-1.368-1.458-2.227-1.991M56.928 38.23c.318.299.626.61.962.888.09.076.076.392.346.184.198-.152.153-.303.084-.499-.221-.626-.829-.528-1.392-.573m-16.08-10.544c.065-.729-.58-1.002-.944-1.46-.085-.106-.21-.095-.32-.017-.087.063-.136.192-.05.237.563.293.544 1.175 1.313 1.24m-3.489-6.766c.08.195 1.453 1.817 1.629 1.928.08.05.171.117.25.017.056-.07.102-.18.091-.26-.077-.57-1.303-1.61-1.97-1.685m13.762 8.045c-.07-.307-.487-.424-.339-.844.424.113.7.384.9.724.109.184.206.357.397.473.454.276.693.568.11 1.043-.267.218-.024 1.547.278 1.798.375.313.731.792 1.107.93 1.007.371 1.898 1.103 3.08 1.011.23-.018.327.146.486.233.586.32.995.988 1.866.773.34-.084-.12.376.211.523.372.166.659.519.952.82.717.736.857 1.36.176 2.142-.444.51-.095.553.181.754-.332.106-.767.075-.422.574.225.326-.136.638-.215.951-.056.22-.164-.056-.258-.11-.164-.091-.352-.201-.568-.074.114.187-.296.428.06.617.224.12.269.409.27.721.323-.53.906-.41 1.33-.689.315-.207.702-.332.94-.654.162-.22.378-.15.312.003-.195.453.102.956-.28 1.379-.149.165-.247.097-.371.045-.128-.052-.26-.401-.345-.167-.164.455-.555.627-.842.925.661.072-.035.48.12.708.037.054-.301.418-.489.181-.487-.611-.948-.145-1.25.153-.473.465-.91.416-1.42.262-.051-.29.574-.325.308-.7-.216-.306-.492-.029-.737-.044-.133-.008-.314-.027-.37.16-.056.183.124.245.226.316.547.376.01.74-.182.734-.617-.018-1.231.255-1.838.096-.644-.17-.751-.557-.306-1.066a.384.384 0 00.089-.197c.163-1.462 1.341-2.143 2.385-2.9.892-.648.905-.705.05-1.34-.996-.74-2.16-1.17-3.282-1.678-1.291-.585-2.614-1.113-3.77-1.93-.916-.649-1.392-1.528-1.075-2.714.166-.62-.048-.974-.584-1.266-1.787-.97-3.727-1.603-5.644-2.284-.943-.335-1.83-.792-2.676-1.271-.991-.563-1.466-1.597-1.248-2.785.203-1.106-.165-1.879-.932-2.578-2.152-1.957-4.634-3.462-7.127-4.95-2.572-1.536-5.22-2.947-7.898-4.307a1.515 1.515 0 01-.405-.28c-.18-.186-.397-.439-.225-.685.137-.196.392.032.597.063.195.03.423.314.573.048.159-.281-.21-.352-.355-.514-.197-.22-.94-.496.07-.67.05-.008.114-.086.13-.142.286-1.045 1.087-1.277 2.063-.75.678.366 1.42.671 2.156.914 1.437.476 2.765 1.166 4.136 1.763 2.397 1.041 4.73 2.214 6.944 3.587 1.292.802 2.43 1.774 3.345 2.983.146.194.286.372.564.406.04-.269-.03-.502-.146-.726.188.362.473.686.337 1.168-.056.202.067.329.16.495.125.224.385.6-.182.75-.043.011-.08.045-.12.068.49.353-.228.675-.087 1 .179.415.203.835.132 1.286-.052.337.159.583.379.779.193.173.717.16.237.614a.51.51 0 00.156.201c.131.08.251-.016.297-.126.13-.315.382-.45.627-.281.39.267.966.154 1.254.568.15.215-.223.341-.212.608.403-.118.85.332 1.196-.236.012-.02.121-.024.136-.002.252.382.478.267.88.08.43-.2.824.25 1.219.451.061.031.16.093.19.07.8-.608.786.417 1.218.547.132.04.092.203.034.366-.233.657-.034.911.605.919.242.003.475.112.73.177M40.007 17.756c.452.008.749.172.985.49-.574.026-.601-.416-.985-.49" fill="#FEE6C6" fill-rule="evenodd"/></svg>